<?xml version='1.0' encoding='UTF-8' standalone='no'?>
<!-- Created with Fritzing (http://www.fritzing.org/) -->
<svg xmlns:svg='http://www.w3.org/2000/svg' xmlns='http://www.w3.org/2000/svg' version='1.2' baseProfile='tiny' x='0in' y='0in' width='4.74487in' height='1.28365in' viewBox='0 0 341.631 92.4229' >
<g partID='854342310'><g transform='translate(0,10.2811)' ><g transform="matrix(1, 0, 0, 1, 0, -316.8)">
<g id="breadboard">
<g>
<g transform="matrix(0,1,-1,0,0,0)">
<rect x="351.9" stroke="#000000" height="3.59999" stroke-width="0.0566929" style="fill-rule:evenodd;stroke-miterlimit:4;stroke-dasharray:none" fill-opacity="1" width="1.7998" id="rect8909" stroke-opacity="1" y="-37.8" fill="url(#linearGradient8911)"/>
</g>
<g transform="matrix(0,1,-1,0,0,0)">
<rect x="351" stroke="#000000" height="7.2" stroke-width="0.0566929" style="fill-rule:evenodd;stroke-miterlimit:4;stroke-dasharray:none" fill-opacity="1" width="0.9" id="rect8901" stroke-opacity="1" y="-39.6" fill="url(#linearGradient8903)"/>
</g>
<rect x="1.71496" stroke="#000000" height="25.2" stroke-width="0.140863" style="stroke-miterlimit:4;stroke-dasharray:none" width="39.685" id="rect8190" stroke-opacity="1" y="326.1" fill="#333333"/>
<rect x="4.54961" stroke="none" height="5.6" style="fill-rule:evenodd;" fill-opacity="1" width="4.25197" id="rect8710" y="326.1" fill="url(#linearGradient8948)"/>
<rect x="4.54961" stroke="none" height="5.6" style="fill-rule:evenodd;" fill-opacity="1" width="4.25197" id="rect8726" y="345.7" fill="url(#linearGradient8945)"/>
<rect x="4.54961" stroke="none" height="14" style="fill-rule:evenodd;" fill-opacity="1" width="4.25197" id="rect8730" y="331.7" fill="url(#linearGradient8942)"/>
<rect x="8.80158" stroke="#000000" height="25.2" stroke-width="0.140863" style="fill-rule:evenodd;stroke-miterlimit:4;stroke-dasharray:none" fill-opacity="1" width="2.83465" id="rect8758" stroke-opacity="1" y="326.1" fill="url(#linearGradient8939)"/>
<rect x="11.6362" stroke="#000000" height="22.4" stroke-width="0.133988" style="fill-rule:evenodd;stroke-miterlimit:4;stroke-dasharray:none" fill-opacity="1" width="26.9291" id="rect8762" stroke-opacity="1" y="327.5" fill="url(#linearGradient8936)"/>
<rect x="1.71496" stroke="#000000" height="25.2" stroke-width="0.140863" style="fill-rule:evenodd;stroke-miterlimit:4;stroke-dasharray:none" fill-opacity="1" width="2.83465" id="rect8196" stroke-opacity="1" y="326.1" fill="url(#linearGradient8933)"/>
<rect x="38.5654" stroke="#000000" height="21" stroke-width="0.140863" style="fill-rule:evenodd;stroke-miterlimit:4;stroke-dasharray:none" fill-opacity="1" width="2.83465" id="rect8841" stroke-opacity="1" y="328.2" fill="url(#linearGradient8930)"/>
<rect x="41.4" stroke="#000000" height="7.2" stroke-width="0.0566929" style="fill-rule:evenodd;stroke-linecap:butt;stroke-linejoin:round;stroke-miterlimit:4;stroke-dasharray:none;stroke-dashoffset:0.28800001" fill-opacity="1" width="0.9" id="rect8869" stroke-opacity="1" y="334.8" fill="url(#linearGradient8877)"/>
<path stroke="#000000" stroke-width="0.0566929" style="fill-rule:evenodd;stroke-miterlimit:4;stroke-dasharray:none" fill-opacity="1" id="path8887" d="m42.3,336.6a1.8,1.8,0,0,1,0,3.6" stroke-opacity="1" fill="url(#radialGradient8899)"/>
<g transform="matrix(1, 0, 0, 1, 0, 316.8)">
<rect x="41.4" stroke="none" height="3.6" width="3.6" id="connector1pin" y="19.8" fill="none"/>
</g>
<g transform="matrix(1, 0, 0, 1, 0, 316.8)">
<rect x="34.2" stroke="none" height="3.6" width="3.6" id="connector3pin" y="34.2" fill="none"/>
</g>
<g transform="matrix(1, 0, 0, 1, 0, 316.8)">
<rect x="27" stroke="none" height="3.6" width="3.6" id="connector2pin" y="19.8" fill="none"/>
</g>
</g>
</g>
</g>
</g></g><g partID='854342820'><g transform='translate(271.217,64.6611)' ><g transform='matrix(-4.44089e-16,-1,1,-4.44089e-16,0,0)'  ><g xmlns="http://www.w3.org/2000/svg" id="breadboard">
 <g xmlns="http://www.w3.org/2000/svg" id="connector0pin">
  <rect xmlns="http://www.w3.org/2000/svg" x="10.104" height="0.722" width="2.152" y="66.822" fill="none"/>
 </g>
 <g xmlns="http://www.w3.org/2000/svg" id="connector1pin">
  <rect xmlns="http://www.w3.org/2000/svg" x="17.303" height="0.722" width="2.154" y="66.822" fill="none"/>
 </g>
 <g xmlns="http://www.w3.org/2000/svg" id="connector0leg">
  <path xmlns="http://www.w3.org/2000/svg" d="M11.18,68.549c-0.825,0,-1.494,-0.669,-1.494,-1.494L9.686,42.44c0,-0.825,0.669,-1.494,1.494,-1.494s1.494,0.669,1.494,1.494l0,24.615C12.674,67.88,12.005,68.549,11.18,68.549z" fill="#8C8C8C"/>
 </g>
 <g xmlns="http://www.w3.org/2000/svg" id="connector1leg">
  <path xmlns="http://www.w3.org/2000/svg" d="M18.381,68.549c-0.825,0,-1.494,-0.669,-1.494,-1.494L16.887,42.44c0,-0.825,0.669,-1.494,1.494,-1.494s1.494,0.669,1.494,1.494l0,24.615C19.875,67.88,19.206,68.549,18.381,68.549z" fill="#8C8C8C"/>
 </g>
 <g xmlns="http://www.w3.org/2000/svg">
  <rect xmlns="http://www.w3.org/2000/svg" x="10.104" height="9.827" width="2.15" y="32.613" fill="#8C8C8C"/>
 </g>
 <g xmlns="http://www.w3.org/2000/svg">
  <path xmlns="http://www.w3.org/2000/svg" d="M19.457,42.44c0,-1.174,-1.064,-2.104,-2.089,-2.991c-0.416,-0.366,-1.198,-1.002,-1.198,-1.425l0,-5.471l-2.162,0l0,5.78c0,1.06,0.947,1.879,1.946,2.748c0.442,0.377,1.349,1.25,1.349,1.771" fill="#8C8C8C"/>
 </g>
 <g xmlns="http://www.w3.org/2000/svg" id="g12">
  <g xmlns="http://www.w3.org/2000/svg" opacity="0.3" enable-background="new    " id="color_path14">
   <path xmlns="http://www.w3.org/2000/svg" d="M25.992,23.843L25.992,13c0,-7.175,-5.811,-13,-12.993,-13C5.822,0,0,5.813,0,13l0,25.029c2.704,3.03,7.514,5.052,12.999,5.052c8.472,0,15.349,-4.803,15.349,-10.747L28.348,29.54C28.346,27.445,27.478,25.497,25.992,23.843z" fill="#FFFFFF"/>
  </g>
  <g xmlns="http://www.w3.org/2000/svg" opacity="0.5" enable-background="new    " id="path16">
   <path xmlns="http://www.w3.org/2000/svg" d="M25.992,23.843L25.992,13c0,-7.175,-5.811,-13,-12.993,-13C5.822,0,0,5.813,0,13l0,25.029c2.704,3.03,7.514,5.052,12.999,5.052c8.472,0,15.349,-4.803,15.349,-10.747L28.348,29.54C28.346,27.445,27.478,25.497,25.992,23.843z" fill="#E6E6E6"/>
  </g>
  <g xmlns="http://www.w3.org/2000/svg" opacity="0.9" enable-background="new    " id="path18">
   <path xmlns="http://www.w3.org/2000/svg" d="M25.992,23.843l0,5.694c0,5.025,-5.807,9.108,-12.993,9.108C5.822,38.645,0,34.573,0,29.537l0,5.695l0,2.794c2.704,3.029,7.514,5.051,12.999,5.051c8.472,0,15.349,-4.802,15.349,-10.746l0,-2.794C28.346,27.445,27.478,25.497,25.992,23.843z" fill="#D1D1D1"/>
  </g>
  <g xmlns="http://www.w3.org/2000/svg" opacity="0.7" enable-background="new    " id="color_path20">
   <path xmlns="http://www.w3.org/2000/svg" d="M25.992,23.843l0,5.694c0,5.025,-5.807,9.108,-12.993,9.108C5.822,38.645,0,34.573,0,29.537l0,5.695l0,2.794c2.704,3.029,7.514,5.051,12.999,5.051c8.472,0,15.349,-4.802,15.349,-10.746l0,-2.794C28.346,27.445,27.478,25.497,25.992,23.843z" fill="#808080"/>
  </g>
  <g xmlns="http://www.w3.org/2000/svg" opacity="0.25" enable-background="new    " id="color_path22">
   <path xmlns="http://www.w3.org/2000/svg" d="M25.992,23.843l0,5.694c0,5.025,-5.807,9.108,-12.993,9.108C5.822,38.645,0,34.573,0,29.537l0,5.695c2.704,3.026,7.514,5.049,12.999,5.049c8.472,0,15.349,-4.802,15.349,-10.744C28.346,27.445,27.478,25.497,25.992,23.843z" fill="#CCCCCC"/>
  </g>
  <g xmlns="http://www.w3.org/2000/svg" opacity="0.25" enable-background="new    " id="ellipse24">
   <ellipse xmlns="http://www.w3.org/2000/svg" cx="12.999" ry="9.098" cy="29.537" fill="#E6E6E6" rx="12.997"/>
  </g>
  <g xmlns="http://www.w3.org/2000/svg" opacity="0.25" enable-background="new    " id="color_ellipse26">
   <ellipse xmlns="http://www.w3.org/2000/svg" cx="12.999" ry="9.098" cy="29.537" fill="#808080" rx="12.997"/>
  </g>
  <g xmlns="http://www.w3.org/2000/svg" id="polygon28">
   <polygon xmlns="http://www.w3.org/2000/svg" fill="#666666" points="4.041,17.693,4.041,29.54,5.861,29.54,5.861,24.014,11.033,24.014,18.361,16.146,6.249,16.146"/>
  </g>
  <g xmlns="http://www.w3.org/2000/svg" id="polygon30">
   <polygon xmlns="http://www.w3.org/2000/svg" fill="#666666" points="19.769,15.632,20.565,16.568,13.594,24.014,20.285,24.014,20.285,29.54,21.961,29.54,21.961,15.632"/>
  </g>
  <g xmlns="http://www.w3.org/2000/svg" opacity="0.65" enable-background="new    " id="color_path32">
   <path xmlns="http://www.w3.org/2000/svg" d="M25.992,23.843L25.992,13c0,-7.175,-5.811,-13,-12.993,-13C5.822,0,0,5.813,0,13l0,25.029c2.704,3.03,7.514,5.052,12.999,5.052c8.472,0,15.349,-4.803,15.349,-10.747L28.348,29.54C28.346,27.445,27.478,25.497,25.992,23.843z" fill="#E6E6E6"/>
  </g>
  <g xmlns="http://www.w3.org/2000/svg" opacity="0.5" enable-background="new    " id="path34">
   <path xmlns="http://www.w3.org/2000/svg" d="M19.053,6.884l2.635,-0.5c-1.546,-2.076,-3.819,-3.589,-6.496,-4.104l0.467,1.982C17.056,4.757,18.235,5.691,19.053,6.884z" fill="#FFFFFF"/>
  </g>
  <g xmlns="http://www.w3.org/2000/svg" opacity="0.5" enable-background="new    " id="path36">
   <path xmlns="http://www.w3.org/2000/svg" d="M1.409,36.545l0,2.787c1.189,0.971,2.63,1.791,4.232,2.416L5.641,38.95C4.029,38.334,2.603,37.514,1.409,36.545z" fill="#FFFFFF"/>
  </g>
  <g xmlns="http://www.w3.org/2000/svg" opacity="0.5" enable-background="new    " id="path38">
   <path xmlns="http://www.w3.org/2000/svg" d="M20.308,37.064c-0.467,0.224,-0.972,0.421,-1.478,0.604c-0.109,0.037,-0.215,0.073,-0.327,0.105c-1.033,0.329,-2.13,0.586,-3.292,0.727c-0.137,0.018,-0.276,0.037,-0.413,0.037c-0.586,0.053,-1.181,0.106,-1.78,0.106c-0.271,0,-0.563,-0.028,-0.866,-0.043c-2.199,-0.104,-4.273,-0.576,-6.046,-1.354L6.106,21.86l0,-8.855c0,-2.697,1.556,-5.005,3.804,-6.141l-0.04,-0.1L7.58,3.992c-3.062,1.839,-5.114,5.177,-5.114,9.01l0,21.833c-0.092,-0.09,-0.567,-0.565,-0.881,-0.972L1.02,35.125c2.569,2.717,6.986,4.517,12,4.517c3.081,0,5.938,-0.687,8.271,-1.841l-0.963,-0.748C20.308,37.064,20.308,37.064,20.308,37.064z" fill="#FFFFFF"/>
  </g>
 </g>
</g>
</g></g></g><g partID='854345730'><line stroke-linecap='round' stroke='#1b5bb3' x1='338.429' y1='3.2321' x2='338.4' y2='46.2811' stroke-width='3.2' /><line stroke-linecap='round' stroke='#418dd9' x1='338.429' y1='3.2321' x2='338.4' y2='46.2811' stroke-width='1.6' /></g><g partID='854345620'><line stroke-linecap='round' stroke='#1b5bb3' x1='201.557' y1='17.3475' x2='201.523' y2='3.2321' stroke-width='3.2' /><line stroke-linecap='round' stroke='#418dd9' x1='201.557' y1='17.3475' x2='201.523' y2='3.2321' stroke-width='1.6' /></g><g partID='854345680'><line stroke-linecap='round' stroke='#1b5bb3' x1='201.523' y1='3.2321' x2='338.429' y2='3.2321' stroke-width='3.2' /><line stroke-linecap='round' stroke='#418dd9' x1='201.523' y1='3.2321' x2='338.429' y2='3.2321' stroke-width='1.6' /></g><g partID='854345630'><line stroke-linecap='round' stroke='#1b5bb3' x1='201.6' y1='17.4811' x2='201.557' y2='17.3475' stroke-width='3.2' /><line stroke-linecap='round' stroke='#418dd9' x1='201.6' y1='17.4811' x2='201.557' y2='17.3475' stroke-width='1.6' /></g><g partID='854345940'><line stroke-linecap='round' stroke='#1b5bb3' x1='338.429' y1='89.1967' x2='144.213' y2='89.1967' stroke-width='3.2' /><line stroke-linecap='round' stroke='#418dd9' x1='338.429' y1='89.1967' x2='144.213' y2='89.1967' stroke-width='1.6' /></g><g partID='854346140'><line stroke-linecap='round' stroke='#1b5bb3' x1='144.213' y1='89.1967' x2='144' y2='75.0811' stroke-width='3.2' /><line stroke-linecap='round' stroke='#418dd9' x1='144.213' y1='89.1967' x2='144' y2='75.0811' stroke-width='1.6' /></g><g partID='854345950'><line stroke-linecap='round' stroke='#1b5bb3' x1='338.4' y1='53.4811' x2='338.429' y2='89.1967' stroke-width='3.2' /><line stroke-linecap='round' stroke='#418dd9' x1='338.4' y1='53.4811' x2='338.429' y2='89.1967' stroke-width='1.6' /></g><g partID='854346060'><line stroke-linecap='round' stroke='#1b5bb3' x1='144.213' y1='89.1967' x2='144' y2='75.0811' stroke-width='3.2' /><line stroke-linecap='round' stroke='#418dd9' x1='144.213' y1='89.1967' x2='144' y2='75.0811' stroke-width='1.6' /></g><g partID='854346210'><line stroke-linecap='round' stroke='#1b5bb3' x1='28.9568' y1='89.1967' x2='144.213' y2='89.1967' stroke-width='3.2' /><line stroke-linecap='round' stroke='#418dd9' x1='28.9568' y1='89.1967' x2='144.213' y2='89.1967' stroke-width='1.6' /></g><g partID='854346070'><line stroke-linecap='round' stroke='#1b5bb3' x1='28.8' y1='31.8811' x2='28.9568' y2='89.1967' stroke-width='3.2' /><line stroke-linecap='round' stroke='#418dd9' x1='28.8' y1='31.8811' x2='28.9568' y2='89.1967' stroke-width='1.6' /></g><g partID='854346300'><line stroke-linecap='round' stroke='#1b5bb3' x1='42.9659' y1='3.2321' x2='43.2' y2='31.8811' stroke-width='3.2' /><line stroke-linecap='round' stroke='#418dd9' x1='42.9659' y1='3.2321' x2='43.2' y2='31.8811' stroke-width='1.6' /></g><g partID='854346310'><line stroke-linecap='round' stroke='#1b5bb3' x1='165.6' y1='17.4811' x2='165.863' y2='3.2321' stroke-width='3.2' /><line stroke-linecap='round' stroke='#418dd9' x1='165.6' y1='17.4811' x2='165.863' y2='3.2321' stroke-width='1.6' /></g><g partID='854346360'><line stroke-linecap='round' stroke='#1b5bb3' x1='165.863' y1='3.2321' x2='42.9659' y2='3.2321' stroke-width='3.2' /><line stroke-linecap='round' stroke='#418dd9' x1='165.863' y1='3.2321' x2='42.9659' y2='3.2321' stroke-width='1.6' /></g></svg>